<svg width="28" height="7" viewBox="0 0 28 7" fill="none" xmlns="http://www.w3.org/2000/svg">
<g id="&#235;&#141;&#148;&#235;&#179;&#180;&#234;&#184;&#176;">
<path d="M14.1073 7C15.722 7 17.0311 5.433 17.0311 3.5C17.0311 1.567 15.722 0 14.1073 0C12.4925 0 11.1835 1.567 11.1835 3.5C11.1835 5.433 12.4925 7 14.1073 7Z" fill="#706C6C"/>
<path d="M24.3405 7C25.9553 7 27.2643 5.433 27.2643 3.5C27.2643 1.567 25.9553 0 24.3405 0C22.7258 0 21.4167 1.567 21.4167 3.5C21.4167 5.433 22.7258 7 24.3405 7Z" fill="#706C6C"/>
<path d="M3.87399 7C5.48875 7 6.79778 5.433 6.79778 3.5C6.79778 1.567 5.48875 4.31653e-07 3.87399 4.31653e-07C2.25922 4.31653e-07 0.950195 1.567 0.950195 3.5C0.950195 5.433 2.25922 7 3.87399 7Z" fill="#706C6C"/>
</g>
</svg>
