<svg width="33" height="33" viewBox="0 0 33 33" fill="none" xmlns="http://www.w3.org/2000/svg">
<g id="&#235;&#167;&#136;&#236;&#157;&#180; &#237;&#142;&#152;&#236;&#157;&#180;&#236;&#167;&#128; &#236;&#149;&#132;&#236;&#157;&#180;&#236;&#189;&#152;">
<g id="vuesax/linear/user-square">
<g id="user-square">
<path id="Vector" d="M24.9426 29.7275C23.7326 30.085 22.3026 30.25 20.6251 30.25H12.3751C10.6976 30.25 9.26762 30.085 8.05762 29.7275C8.36012 26.1525 12.0314 23.3337 16.5001 23.3337C20.9689 23.3337 24.6401 26.1525 24.9426 29.7275Z" stroke="#292D32" stroke-width="1.5" stroke-linecap="round" stroke-linejoin="round"/>
<path id="Vector_2" d="M20.625 2.75H12.375C5.5 2.75 2.75 5.5 2.75 12.375V20.625C2.75 25.8225 4.3175 28.6687 8.0575 29.7275C8.36 26.1525 12.0312 23.3337 16.5 23.3337C20.9688 23.3337 24.64 26.1525 24.9425 29.7275C28.6825 28.6687 30.25 25.8225 30.25 20.625V12.375C30.25 5.5 27.5 2.75 20.625 2.75ZM16.5 19.4837C13.7775 19.4837 11.5775 17.27 11.5775 14.5475C11.5775 11.825 13.7775 9.625 16.5 9.625C19.2225 9.625 21.4225 11.825 21.4225 14.5475C21.4225 17.27 19.2225 19.4837 16.5 19.4837Z" stroke="#292D32" stroke-width="1.5" stroke-linecap="round" stroke-linejoin="round"/>
<path id="Vector_3" d="M21.4224 14.5475C21.4224 17.27 19.2224 19.4837 16.4999 19.4837C13.7774 19.4837 11.5774 17.27 11.5774 14.5475C11.5774 11.825 13.7774 9.625 16.4999 9.625C19.2224 9.625 21.4224 11.825 21.4224 14.5475Z" stroke="#292D32" stroke-width="1.5" stroke-linecap="round" stroke-linejoin="round"/>
</g>
</g>
</g>
</svg>
