<svg width="267" height="270" viewBox="0 0 267 270" fill="none" xmlns="http://www.w3.org/2000/svg">
<path d="M212.212 248.8C240.187 251.242 290.845 212.867 251.878 156.167C211.55 90.4684 280.4 43.4666 223.7 7.06654C182.601 -19.3183 133.199 37.6898 100.123 26.3721C29.5668 7.06654 -15.0821 78.3883 16.0335 123.733C39.2846 157.617 -17.107 180.9 5.53346 207.733C30.7333 237.6 50.7026 205.314 87.6667 212.073C141.333 221.886 179.798 245.971 212.212 248.8Z" fill="#FFDC89"/>
<path d="M159.023 17.0387L159.468 17.3041L159.908 17.5721C166.119 21.3902 164.524 27.5017 172.687 36.5826C190.367 56.2515 207.272 76.6604 223.349 97.7422L224.617 99.408L224.985 99.8938C230.968 107.812 233.601 112.901 233.748 119.008C233.858 123.524 238.492 126.558 235.131 130.056L234.95 130.243L234.932 130.259L234.876 130.32C234.077 131.178 233.182 131.941 232.206 132.591L231.945 132.76L231.863 132.817C227.75 135.622 222.906 136.787 218.389 135.927L218.147 135.879L217.951 135.836L217.926 136.009C213.348 166.195 204.017 195.655 190.382 222.973L189.968 223.801L189.542 224.643L189.298 225.121L189.048 225.601C187.783 228.008 186.867 229.338 185.497 230.56C183.582 232.267 181.155 233.219 178.159 233.606C176.038 233.88 174.043 233.878 170.674 233.685L170.082 233.65C156.56 232.83 142.982 232.835 129.451 233.664L128.182 233.744L127.134 233.813L126.981 233.83C124.934 234.047 123.077 234.203 121.301 234.3L120.858 234.323L120.363 234.346L120.272 234.353C118.165 234.541 116.06 234.749 113.957 234.976L110.372 235.382L107.354 235.728L106.026 235.873C105.615 235.916 105.231 235.956 104.856 235.992L103.437 236.124L103.336 236.2C103.286 236.236 103.235 236.271 103.183 236.306L103.025 236.407L102.859 236.505L102.324 236.794L101.966 236.527L101.863 236.445L101.764 236.358L101.672 236.266L101.434 236.283C96.2768 236.641 91.9931 236.51 87.9524 235.737L87.5857 235.665L87.2306 235.592C78.0742 233.653 70.4802 227.644 68.4911 219.806C60.9958 190.272 50.5101 161.498 37.2471 134.065L37.0667 133.694L36.979 133.746C33.8336 135.528 29.8814 135.091 26.4005 132.832L26.2209 132.714L26.0385 132.589L25.9964 132.571C24.9047 132.087 23.9353 131.218 23.244 130.126L23.1471 129.968L23.0786 129.816L23.0528 129.827C21.9258 128.444 21.0917 126.893 20.6255 125.277L20.5583 125.034L20.4967 124.79C19.0038 118.59 20.9241 112.202 25.6249 104.097C26.9909 101.742 35.294 87.8561 46.4295 81.2658C58.6789 74.0162 56.398 74.6579 59.0295 72.3991C61.0668 69.8331 52.8887 55.1 45.6668 47.6665C38.4449 40.233 66.8714 32.671 69.0815 33.4882C69.6606 33.7024 70.1952 33.9676 70.6894 34.2839L70.8987 34.4226L70.9216 34.4385L70.9776 34.2948L71.1423 34.5972L71.2235 34.6575C72.2233 35.4195 73.0433 36.418 73.725 37.6532L73.8512 37.8876L73.956 38.0911C74.7245 39.6155 76.2202 40.3872 76.9335 43.2332L77.4177 45.2023L77.5561 45.7564L77.6915 46.2846C78.2503 48.4336 79.267 49.9535 79.8913 51.2458L79.9668 51.3998L80.0051 51.4762L80.1798 51.2453C90.4904 37.6727 102.377 27.1796 117.548 19.4173L117.437 19.4198C115.76 19.4198 120.145 17.444 131.238 13.5181L131.868 13.2974L132.519 13.0738C140.714 10.286 150.416 11.9596 159.023 17.0387Z" fill="white"/>
<path d="M220.193 134.761L219.951 134.713L219.755 134.67L219.73 134.843C215.152 165.029 205.82 194.489 192.186 221.808L191.772 222.635L191.346 223.477L191.102 223.956C189.704 226.67 188.759 228.094 187.301 229.394C185.386 231.101 182.959 232.053 179.963 232.44C177.842 232.714 176.363 231.851 170.954 231.362C189.357 221.324 192.208 202.344 198.645 190C217.34 154.143 205.739 144.386 220.193 134.761Z" fill="#E7EAEE"/>
<path d="M137.882 266.865C137.641 267.437 136.864 267.654 136.39 267.282C136.678 266.88 136.98 266.464 137.402 266.229C137.823 265.994 138.401 265.993 138.723 266.365C138.475 266.548 138.226 266.73 137.977 266.913L137.882 266.865Z" fill="#00160A"/>
<path d="M138.052 268.718C137.498 268.767 136.944 268.817 136.39 268.866C136.633 268.558 136.875 268.249 137.118 267.94C137.436 267.926 137.783 267.919 138.039 268.082C138.296 268.245 138.351 268.648 138.064 268.767L138.052 268.718Z" fill="#00160A"/>
<path d="M156.188 246C155.932 245.88 155.948 245.542 156.102 245.328C156.257 245.113 156.505 244.958 156.649 244.738C156.802 244.503 156.82 244.221 156.834 243.951C156.879 243.078 156.924 242.206 156.969 241.333C157.413 242.053 157.499 242.933 157.203 243.708C157.652 243.64 158.138 243.867 158.323 244.231C157.658 244.862 156.944 245.453 156.188 246Z" fill="#00160A"/>
<path d="M155.466 245.533C154.746 245.389 154.166 244.724 154.124 243.995C154.619 244.181 155.177 243.814 155.416 243.344C155.655 242.874 155.671 242.328 155.743 241.806C155.907 240.619 156.393 239.477 157.136 238.533C157.592 239.265 157.417 240.322 156.748 240.868C155.721 241.709 156.642 243.566 155.826 244.612C155.605 244.895 155.251 245.246 155.466 245.533Z" fill="#00160A"/>
<path d="M74.3234 69.7365C71.2144 73.0909 65.7712 74.5482 61.8777 72.1405C58.6917 70.1703 57.3152 66.3478 55.8057 62.9275C54.2552 59.4145 52.3479 56.058 50.1223 52.926C48.6419 50.8427 46.5274 48.6461 43.9901 48.997C44.4697 48.1646 45.6441 47.9528 46.5495 48.2801C47.4549 48.6075 48.1462 49.3373 48.7786 50.0612C51.9636 53.7069 54.583 57.8424 56.5153 62.2761C57.4658 64.457 58.2626 66.7309 59.607 68.6953C60.9513 70.6597 62.9733 72.3239 65.3463 72.5715C67.4088 72.7867 69.4138 71.924 71.307 71.0805C72.3125 70.6325 73.318 70.1845 74.3234 69.7365Z" fill="#00160A"/>
<path d="M109.08 262.82C112.238 261.304 115.838 261.16 119.326 261.043C123.898 260.889 128.528 260.741 132.991 261.76C134.526 262.11 136.33 262.967 136.383 264.571C136.437 266.174 136.168 267.788 135.599 269.284C134.911 268.012 133.134 268.06 131.724 268.265C124.209 269.356 116.481 269.995 109.087 268.247C108.216 268.041 107.27 267.742 106.799 266.968C106.334 266.204 106.496 265.168 106.998 264.43C107.501 263.691 108.283 263.203 109.08 262.82ZM117.888 267.927C115.493 267.744 113.102 267.494 110.72 267.178C110.021 267.085 109.296 266.977 108.705 266.585C108.114 266.193 107.696 265.432 107.916 264.748C107.222 264.889 107.048 265.924 107.466 266.507C107.883 267.089 108.622 267.312 109.311 267.476C116.756 269.247 124.531 268.387 132.128 267.504C133.651 267.327 135.567 266.765 135.705 265.208C135.848 263.594 133.925 262.706 132.362 262.413C126.011 261.223 119.479 261.686 113.064 262.432C112.082 262.546 111.078 262.674 110.199 263.132C109.319 263.591 108.576 264.454 108.53 265.46C110.77 267.192 113.923 266.588 116.689 267.095C117.196 267.188 117.787 267.413 117.888 267.927Z" fill="#00160A"/>
<path d="M110.604 200.364C111.113 200.9 111.334 201.688 111.092 202.369C110.85 203.05 110.116 203.57 109.352 203.531C108.588 203.492 107.895 202.841 107.924 202.124C107.963 201.185 108.219 199.994 109.202 199.819C109.722 199.726 110.251 199.994 110.604 200.364ZM108.945 201.72C108.558 202.219 109.337 202.956 109.948 202.726C110.558 202.497 110.735 201.704 110.457 201.144C110.37 200.968 110.244 200.803 110.069 200.699C109.497 200.359 108.641 201.043 108.906 201.626L108.945 201.72Z" fill="#00160A"/>
<path d="M134.693 253.478C134.481 253.333 134.269 253.188 134.057 253.044C134.68 251.567 134.778 249.873 134.329 248.333C136.271 249.18 134.355 253.062 136.266 253.977C136.381 252.2 137.781 250.716 139.396 249.979C141.012 249.243 142.827 249.114 144.598 248.995C151.364 248.543 158.29 248.107 164.807 249.986C166.059 250.347 167.493 251.034 167.644 252.332C167.795 253.625 166.548 254.641 165.347 255.132C163.417 255.923 161.294 256.08 159.21 256.168C153.351 256.417 147.473 256.194 141.649 255.503C140.028 255.311 138.262 255.005 137.192 253.767C136.436 254.603 135.082 254.818 134.105 254.256C134.301 253.997 134.497 253.737 134.693 253.478ZM140.346 250.467C139.879 250.558 139.365 250.685 139.097 251.08C138.736 251.609 139.029 252.382 139.547 252.756C140.066 253.131 140.733 253.213 141.368 253.282C146.067 253.799 150.767 254.316 155.466 254.832C150.988 255.192 146.461 254.934 142.052 254.068C140.686 253.8 139.264 253.438 138.249 252.482C137.881 252.83 138.014 253.487 138.386 253.829C138.759 254.171 139.283 254.281 139.78 254.371C147.425 255.767 155.285 255.978 162.994 254.995C164.149 254.848 165.402 254.622 166.173 253.747C166.945 252.871 166.763 251.151 165.628 250.89C157.353 248.984 148.68 248.839 140.346 250.467Z" fill="#00160A"/>
<path d="M108.314 185.058C108.055 185.35 108.236 185.811 108.37 186.184C108.654 186.974 108.658 187.839 108.658 188.683C108.658 190.853 108.657 193.022 108.657 195.191C108.657 195.589 108.545 196.117 108.164 196.133C108.151 193.511 108.137 190.889 108.124 188.267C108.119 187.265 108.093 186.193 107.54 185.374C107.2 184.869 107.973 184.209 108.517 184.452C109.061 184.695 109.282 185.367 109.397 185.972C109.641 187.269 109.668 188.599 109.693 189.92C109.725 191.57 109.757 193.22 109.789 194.87C109.802 195.538 109.673 196.403 109.044 196.533C109.34 194.365 109.329 192.166 109.318 189.977C109.309 188.272 109.264 186.446 108.314 185.058Z" fill="#00160A"/>
<path d="M106.777 237.197C107.178 237.846 107.579 238.495 107.98 239.144C107.958 237.881 108.511 236.619 109.46 235.769C109.001 236.793 108.865 237.954 109.074 239.054C109.682 238.034 110.096 236.901 110.289 235.733C110.369 236.59 110.45 237.447 110.53 238.304C112.541 237.339 114.84 237.188 117.073 237.053C119.203 236.924 121.333 236.796 123.463 236.667C130.051 236.269 136.665 235.871 143.244 236.39C145.236 236.547 147.307 236.818 148.966 237.914C150.145 238.694 151.093 240.057 150.805 241.427C150.4 243.347 148.03 244.049 146.062 244.362C140.214 245.294 134.331 246.018 128.43 246.533C121.282 247.156 113.787 247.416 107.249 244.506C106.25 244.061 105.212 243.472 104.791 242.476C104.369 241.48 104.981 240.046 106.077 240.049C105.876 239.333 105.344 238.714 104.66 238.399C105.476 237.937 106.684 238.529 106.8 239.449C106.793 238.698 106.785 237.948 106.777 237.197ZM110.111 243.686C113.55 244.173 116.989 244.66 120.428 245.148C116.066 245.446 111.65 244.964 107.461 243.731C109.774 244.922 112.313 245.685 114.907 245.97C116.854 246.184 118.82 246.131 120.778 246.051C129.935 245.674 139.066 244.709 148.095 243.163C149.824 242.867 150.175 240.297 149.014 239.003C147.852 237.709 145.947 237.408 144.2 237.249C135.857 236.491 127.456 237.135 119.104 237.779C115.777 238.036 112.411 238.3 109.246 239.342C108.177 239.695 106.963 240.368 106.943 241.478C106.917 242.877 108.704 243.486 110.111 243.686ZM105.95 240.773C105.278 241.02 105.24 242.02 105.691 242.571C106 242.948 106.47 243.193 106.961 243.233C106.294 242.716 106.021 241.759 106.317 240.976C106.268 240.832 106.1 240.739 105.95 240.773H105.95Z" fill="#00160A"/>
<path d="M129.555 167.145C129.708 167.082 129.862 167.289 129.857 167.483C129.852 167.678 129.746 167.844 129.645 167.996C129.332 168.465 128.956 168.974 128.457 169C128.455 168.19 128.918 167.408 129.555 167.145Z" fill="#00160A"/>
<path d="M153.936 179.995C144.691 185.368 135.422 190.753 125.636 195.062C124.058 195.757 122.275 196.432 120.656 195.839C119.519 195.422 118.687 194.45 117.951 193.487C115.395 190.141 113.332 186.418 111.852 182.474C111.48 181.484 111.14 180.45 111.196 179.394C111.252 178.337 111.785 177.245 112.746 176.805C115.259 175.657 117.772 174.509 120.285 173.361C120.691 173.175 121.113 172.978 121.388 172.626C121.712 172.212 121.777 171.659 121.831 171.136C122.233 167.21 122.636 163.284 123.038 159.359C123.137 158.392 123.289 157.322 124.035 156.701C124.782 156.079 126.27 156.467 126.211 157.438C126.172 158.072 126.805 158.515 127.36 158.824C130.315 160.468 133.27 162.113 136.225 163.758C136.78 164.066 137.452 164.379 138.017 164.091C140.526 162.807 143.084 161.622 145.685 160.539C146.563 160.173 147.54 159.814 148.441 160.119C149.167 160.365 149.687 160.994 150.152 161.605C152.834 165.125 155.047 169.003 156.714 173.104C157.162 174.204 157.576 175.403 157.302 176.559C156.922 178.167 155.364 179.165 153.936 179.995ZM112.29 180.448C113.213 183.71 114.853 186.766 117.061 189.337C118.205 190.668 119.577 191.914 121.275 192.353C123.405 192.903 125.629 192.094 127.656 191.238C133.721 188.677 139.541 185.578 145.352 182.483C148.725 180.686 152.098 178.89 155.47 177.093C155.932 176.847 156.434 176.554 156.592 176.055C156.719 175.652 156.585 175.216 156.446 174.817C154.893 170.362 152.596 166.169 149.68 162.462C149.154 161.794 148.546 161.101 147.717 160.915C146.859 160.721 145.99 161.118 145.2 161.505C134.599 166.696 124.078 172.053 113.644 177.573C113.061 177.881 112.432 178.242 112.203 178.861C112.016 179.366 112.143 179.929 112.29 180.448ZM155.403 177.981C153.504 179.002 151.605 180.023 149.706 181.044C142.405 184.97 135.092 188.902 127.471 192.16C124.878 193.269 121.686 194.241 119.418 192.562C118.233 191.684 117.555 190.218 116.296 189.45C117.654 192.111 119.623 195.161 122.608 195.102C123.673 195.081 124.679 194.64 125.649 194.2C135.945 189.531 145.898 184.105 155.403 177.981ZM126.2 159.427C125.865 159.491 125.69 159.849 125.473 160.112C125.256 160.375 124.786 160.538 124.615 160.242C124.682 159.942 124.75 159.642 124.818 159.342C124.709 159.159 124.415 159.181 124.264 159.332C124.114 159.483 124.069 159.706 124.031 159.916C123.352 163.723 122.869 167.564 122.583 171.421C122.563 171.692 122.576 172.025 122.816 172.153C123.599 171.802 123.515 170.689 123.421 169.835C123.203 167.85 123.681 165.76 124.904 164.184C126.128 162.607 128.126 161.608 130.113 161.768C130.336 161.583 130.077 161.239 129.833 161.084C128.856 160.465 127.817 159.941 126.738 159.524C126.566 159.457 126.382 159.392 126.2 159.427ZM126.238 167.657C126.121 168.374 126.037 169.324 125.328 169.478C125.19 169.97 126.045 170.194 126.386 169.813C126.726 169.431 126.693 168.86 126.738 168.351C126.859 166.96 127.758 165.662 129.016 165.061C130.275 164.459 131.848 164.576 133.004 165.356C133.613 165.766 134.424 166.351 134.963 165.853C135.291 165.551 135.238 164.986 134.958 164.638C134.678 164.291 134.24 164.117 133.813 163.989C132.291 163.535 130.606 163.508 129.146 164.133C127.685 164.757 126.492 166.087 126.238 167.657ZM132.965 162.771C130.933 161.951 128.494 162.233 126.703 163.496C124.911 164.759 123.824 166.963 123.91 169.155C123.93 169.661 124.008 170.163 124.086 170.663C124.128 170.929 124.243 171.264 124.512 171.267C124.868 171.27 124.897 170.747 124.829 170.398C124.457 168.504 125.034 166.448 126.337 165.026C127.64 163.604 129.636 162.851 131.552 163.059C132.056 163.114 132.673 163.185 132.965 162.771ZM127.445 169.475C129.106 169.459 130.22 167.854 131.331 166.618C131.421 166.519 131.519 166.416 131.649 166.383C131.83 166.336 132.037 166.46 132.08 166.642C131.892 166.858 131.703 167.073 131.515 167.289C132.19 167.429 132.938 167.039 133.21 166.405C132.191 165.361 130.467 165.094 129.18 165.779C127.893 166.465 127.151 168.045 127.445 169.475ZM124.519 158.281C125.013 158.396 125.569 158.109 125.762 157.64C125.25 157.159 124.276 157.376 124.015 158.029C124.175 158.129 124.334 158.229 124.494 158.329L124.519 158.281ZM135.691 164.662C135.538 165.036 136.188 165.372 136.428 165.046C136.668 164.721 136.24 164.197 135.861 164.338C135.731 164.386 135.627 164.485 135.527 164.581L135.691 164.662Z" fill="#00160A"/>
<path d="M181.342 189.039C179.303 187.687 178.643 185.033 178.272 182.615C177.278 176.131 177.192 169.509 178.019 163.003C178.142 162.034 178.308 161.015 178.928 160.261C180.066 158.876 182.159 158.949 183.95 159.033C188.679 159.254 193.444 158.695 197.993 157.384C198.753 157.165 199.568 157.686 199.95 158.377C200.332 159.069 200.384 159.888 200.428 160.677C200.667 164.954 200.907 169.231 201.146 173.508C201.349 177.15 201.487 181.061 199.538 184.144C197.011 188.142 191.829 189.448 187.12 189.894C185.142 190.081 182.998 190.137 181.342 189.039ZM181.915 159.75C181.389 159.787 180.848 159.853 180.392 160.118C179.544 160.609 179.199 161.642 178.97 162.595C178.128 166.097 177.93 169.753 178.389 173.326C181.984 173.498 185.593 173.353 189.162 172.892C189.361 172.866 189.569 172.835 189.729 172.714C190.02 172.492 190.037 172.068 190.025 171.702C189.938 168.916 189.713 166.134 189.354 163.37C189.242 162.511 189.09 161.595 188.494 160.967C187.961 160.405 187.169 160.179 186.409 160.03C184.932 159.739 183.416 159.644 181.915 159.75ZM185.868 187.644C186.886 187.572 188.083 187.385 188.54 186.473C188.701 186.152 188.739 185.785 188.775 185.428C189.037 182.808 189.299 180.188 189.561 177.569C189.603 177.151 189.636 176.695 189.404 176.344C188.962 175.673 187.952 175.845 187.179 176.068C184.443 176.858 181.606 177.297 178.759 177.369C178.001 179.287 179.086 181.387 179.36 183.432C179.448 184.094 179.453 184.777 179.691 185.401C180.111 186.502 181.208 187.232 182.35 187.521C183.493 187.81 184.693 187.728 185.868 187.644ZM195.218 184.264C193.774 185.947 191.213 186.628 190.324 188.659C195.984 188.229 200.779 182.786 200.492 177.118C200.21 171.544 199.927 165.969 199.645 160.394C199.623 159.96 199.596 159.508 199.383 159.129C198.914 158.293 197.75 158.152 196.816 158.368C195.882 158.584 194.997 159.054 194.038 159.077C196.795 160.691 197.108 164.48 197.099 167.674C197.095 169.123 197.092 170.572 197.088 172.021C197.792 171.337 199.152 171.856 199.394 172.807C199.636 173.759 198.919 174.777 197.985 175.081C196.568 175.541 196.572 177.5 196.644 178.988C196.733 180.853 196.433 182.847 195.218 184.264ZM192.623 159.452C192.14 159.391 191.652 159.463 191.171 159.534C190.667 159.608 190.164 159.682 189.661 159.756C191.254 161.214 192.077 163.349 192.43 165.479C192.783 167.609 192.717 169.783 192.821 171.939C192.83 172.127 192.856 172.343 193.012 172.448C193.134 172.53 193.294 172.514 193.439 172.496C194.095 172.411 194.751 172.327 195.407 172.243C195.567 172.222 195.738 172.197 195.86 172.09C196.012 171.956 196.043 171.735 196.064 171.534C196.37 168.632 196.669 165.636 195.811 162.848C195.328 161.277 194.253 159.658 192.623 159.452ZM188.591 188.617C189.495 188.234 190.367 187.643 190.79 186.757C191.093 186.12 191.135 185.394 191.172 184.689C191.385 180.624 191.598 176.559 191.812 172.494C192.034 168.243 192.107 163.525 189.324 160.304C191.53 167.935 190.668 176.073 189.787 183.968C189.576 185.858 188.94 188.216 187.056 188.483C185.214 188.424 183.372 188.364 181.53 188.304C183.679 189.45 186.349 189.568 188.591 188.617ZM195.973 178.344C196.001 177.561 196.03 176.779 196.058 175.996C194.822 175.933 193.576 176.081 192.39 176.43C192.112 179.364 191.976 182.311 191.982 185.258C191.982 185.319 191.983 185.381 192.009 185.436C192.11 185.648 192.429 185.548 192.625 185.418C193.286 184.982 193.956 184.539 194.476 183.94C195.768 182.452 195.902 180.314 195.973 178.344ZM178.959 176.845C181.832 176.319 184.705 175.793 187.578 175.267C188.275 175.14 189.08 175.039 189.615 175.504C189.763 175.121 189.915 174.715 189.849 174.31C189.782 173.904 189.409 173.518 189.005 173.595C186.048 174.161 183.011 174.303 180.015 174.015C179.335 173.95 178.639 174.386 178.4 175.025C178.162 175.664 178.403 176.45 178.959 176.845ZM197.265 172.56C195.938 172.848 194.611 173.135 193.284 173.423C193.086 173.466 192.874 173.516 192.739 173.667C192.57 173.855 192.574 174.137 192.587 174.389C192.609 174.82 192.631 175.25 192.654 175.681C194.035 175.376 195.417 175.071 196.799 174.766C197.359 174.642 197.955 174.499 198.346 174.079C198.737 173.66 198.775 172.868 198.275 172.587C197.974 172.419 197.602 172.487 197.265 172.56Z" fill="#00160A"/>
<path d="M160.889 16.1056L161.334 16.371C167.755 20.2378 172.732 24.9549 181.087 34.2495C198.767 53.9184 215.672 74.3273 231.749 95.4091L233.016 97.0748L233.384 97.5607C239.368 105.479 242.001 110.568 242.148 116.675C242.258 121.191 240.359 125.625 236.998 129.123L236.816 129.31L236.799 129.326L236.743 129.387C235.944 130.245 235.049 131.008 234.073 131.658L233.811 131.827L233.73 131.884C229.617 134.689 224.772 135.854 220.255 134.994L220.014 134.946L219.818 134.903L219.792 135.076C215.215 165.262 205.883 194.722 192.249 222.04L191.834 222.867L191.409 223.71L191.164 224.188C189.766 226.902 188.822 228.327 187.363 229.627C185.448 231.334 183.021 232.286 180.026 232.673C177.905 232.947 175.909 232.944 172.54 232.752L171.949 232.717C158.426 231.896 144.848 231.901 131.317 232.731L130.049 232.811L129.001 232.88L128.848 232.897C126.801 233.114 124.944 233.27 123.167 233.367L122.725 233.39L122.229 233.413L122.139 233.42C120.032 233.608 117.926 233.816 115.824 234.043L112.238 234.449L109.22 234.795C108.259 234.902 107.472 234.986 106.723 235.059C98.1474 235.404 92.5127 235.319 89.8189 234.804L89.4522 234.732L89.0972 234.659C79.9408 232.72 72.3468 226.711 70.3577 218.873C62.8624 189.339 52.3767 160.565 39.1137 133.132L38.9333 132.761L38.8456 132.813C35.7002 134.595 31.748 134.158 28.2671 131.899L28.0875 131.781L27.9051 131.656L27.8629 131.638C26.7713 131.154 25.8018 130.285 25.1105 129.192L25.0137 129.035L24.9618 128.946L24.9193 128.894C23.7924 127.511 22.9583 125.96 22.492 124.344L22.4249 124.101L22.3633 123.857C20.8704 117.657 22.7907 111.269 27.4915 103.164C36.0483 88.4118 46.5634 77.3318 59.102 71.1236L59.4826 70.9369L60.1665 72.1557C49.0935 79.2631 39.4952 88.6583 32.1528 99.5766C27.1183 107.063 24.3505 113.943 24.3418 120.488L24.3433 120.785L24.3472 121.032L24.3598 121.008C27.5178 114.797 32.795 109.615 41.2198 103.469L41.5828 103.205L41.921 102.96C51.1268 96.3208 61.1542 90.0589 72.7428 83.5852L74.2973 82.7208C82.8653 77.9771 90.154 74.1959 104.365 67.0427L119.196 59.5767C123.268 57.5145 126.319 55.9477 129.738 54.1661L130.599 53.7141C137.562 50.0325 142.843 46.5676 147.016 42.648C152.389 37.6002 155.452 32.1294 155.905 25.9985C156.272 21.0456 154.437 16.3531 150.931 14.1578C147.524 12.0243 143.147 12.1814 137.052 13.9767C115.079 20.4491 95.3991 34.465 82.099 53.1148C81.2804 54.2627 81.838 55.3047 82.099 55.9255C83.8067 59.9877 82.7622 64.5535 80.7443 68.4689L80.6325 68.6816L79.0495 71.6304L80.3271 64.5741C80.2133 53.1148 78.0664 46.801 73.3188 37.2472L73.1194 36.8499L73.0023 36.6218L72.9248 36.7745C70.717 41.0185 66.4759 44.3264 61.302 46.146L61.0335 46.2387L60.7765 46.3246C56.4859 47.7332 52.7843 48.1474 45.2699 48.3508L43.492 48.394L43.2794 48.0666C41.99 46.0814 43.2476 43.6087 45.6564 41.6571C50.7746 37.5104 56.772 34.4557 63.1358 32.7542C66.3481 31.8953 68.738 31.7379 70.948 32.5551C71.5272 32.7693 72.0618 33.0345 72.556 33.3508L72.7653 33.4895L72.7881 33.5054L72.8442 33.3617L73.0089 33.6641L73.0901 33.7244C74.0899 34.4864 74.9098 35.4849 75.5916 36.7201L75.7178 36.9545L75.8226 37.158C76.5911 38.6824 77.0627 40.1428 77.776 42.9888L78.2603 44.9579L78.3986 45.512C79.0143 47.9464 79.5391 49.5954 80.2133 50.991L80.2888 51.1451L80.3271 51.2215L80.5018 50.9905C93.8211 33.4575 112.348 19.9311 133.105 12.585L133.735 12.3643L134.385 12.1407C142.581 9.3529 152.283 11.0265 160.889 16.1056ZM125.494 135.169C116.873 135.624 108.422 139.482 102.261 145.725C99.4705 148.553 97.674 151.376 97.0121 154.355L96.954 154.628C96.567 156.529 96.5942 158.273 96.9246 161.701L104.007 232.569C104.062 233.121 104.128 233.51 104.228 233.804L104.254 233.875L104.745 233.834L104.813 233.771C105.654 232.957 106.215 231.715 106.385 230.353L106.409 230.127L106.414 230.072C106.529 228.751 106.396 227.638 105.93 225.299L105.799 224.642L105.601 223.634C104.188 216.274 103.511 209.518 102.671 196.878L102.407 192.883C101.32 176.724 100.425 169.213 98.1009 160.149C97.0519 156.058 98.2685 151.418 101.116 147.734C103.529 144.612 106.955 142.164 111.393 140.099C116.778 137.594 122.382 136.201 127.864 136.11C132.289 136.036 136.679 136.731 142.779 138.245L143.368 138.394C148.388 139.675 151.356 140.925 153.876 143.222C156.41 145.531 158.046 148.629 159.556 153.217C162.902 163.377 164.185 174.576 163.999 188.067L163.971 189.631C163.881 193.955 163.68 197.993 163.26 204.523L162.652 213.764C162.364 218.275 162.218 221.05 162.099 224.318L162.086 224.714C162.037 226.499 162.137 227.451 162.553 228.398C162.963 229.332 163.765 230.026 164.587 230.207L164.701 230.229L165.2 196.352C165.384 182.562 165.261 175.905 164.468 167.89L164.443 167.634C164.015 163.368 163.452 159.854 162.609 156.565C162.182 154.899 161.67 153.254 161.077 151.639C159.401 147.074 157.353 143.719 154.533 141.442C151.359 138.879 147.933 137.801 140.879 136.619L140.247 136.515C132.918 135.315 129.589 134.953 125.494 135.169ZM107.569 231.595L107.564 231.612C107.37 232.348 107.075 233.041 106.685 233.657L108.177 233.501C108.607 233.454 109.07 233.403 109.582 233.345L112.084 233.057C111.897 233.033 111.71 233.008 111.524 232.982L111.073 232.916L110.49 232.827L110.477 232.188L110.414 232.225C109.854 232.535 109.235 232.738 108.599 232.814L108.439 232.83L107.808 232.884L107.569 231.595ZM86.6267 232.153L86.5813 232.216C86.5096 232.309 86.4289 232.393 86.3403 232.468C87.3294 232.794 88.3474 233.069 89.3872 233.289C89.722 233.36 90.0584 233.426 90.397 233.488C89.1752 233.154 87.9767 232.736 86.8132 232.235L86.6267 232.153ZM125.744 103.908C96.6086 105.51 66.7293 113.207 36.521 126.234L35.4772 126.686L36.5477 127.19C38.9904 128.337 40.374 130.301 42.1947 134.293L45.0674 140.665C50.3739 152.478 53.4731 159.667 56.6479 167.684C61.1267 178.995 64.5721 189.267 67.1364 199.311L68.5298 204.875C68.7065 205.572 68.8684 206.2 69.0291 206.811L69.2418 207.612C70.7269 213.148 72.1367 217.18 73.9781 220.749C76.3352 225.319 79.2751 228.745 83.073 231.078C84.1253 231.724 85.4101 231.685 85.5387 231.178L85.547 231.132L85.6551 230.156L86.5423 230.576C91.1763 232.771 96.4725 233.546 101.543 232.787L101.819 232.743L94.858 163.467L94.7919 162.804C94.3471 158.288 94.3515 155.722 95.0758 152.986C96.0345 149.363 98.3427 146.041 101.742 142.929C107.665 137.507 115.339 134.035 123.322 133.164C128.669 132.58 134.072 133.042 141.572 134.421L142.226 134.543C148.031 135.645 151.608 136.813 154.859 139.033C159.017 141.873 161.882 146.139 163.74 151.73C165.217 156.172 166.006 161.149 166.479 167.638C167.941 187.688 167.941 207.844 166.479 227.894C166.341 229.789 168.838 231.068 172.176 231.224L172.343 231.231L172.813 231.247L173.381 231.263C179.17 231.407 182.48 230.812 185.124 228.616C186.572 227.414 187.538 225.986 189.032 223.139L189.151 222.912C202.64 197.026 211.915 168.951 216.502 140.125L216.639 139.251C217.139 136.042 217.677 133.787 218.554 131.776C219.68 129.196 221.275 127.39 223.485 126.478L223.666 126.406L223.879 126.324L223.785 126.251C221.95 124.853 219.757 123.545 216.892 122.057L216.255 121.729C189.584 108.089 158.154 102.126 125.744 103.908ZM127.078 138.319C122.412 138.503 117.6 139.772 112.715 141.981C105.678 145.163 100.933 149.819 100.225 155.36C100.18 155.717 100.151 156.08 100.137 156.452L100.129 156.724C100.098 158.3 100.3 159.724 100.859 162.32L101.291 164.284C102.711 170.808 103.476 177.179 104.235 187.172L104.814 195.041C106.048 211.557 107.042 220.877 108.884 231.002L108.942 231.323L109.038 231.296C109.598 231.126 110.118 230.816 110.53 230.402L110.631 230.296L111.812 229L111.865 231.615L112.162 231.656C115.105 232.043 118.186 232.158 121.547 232.039L122.108 232.018L123.149 231.927C124.566 231.806 125.984 231.693 127.401 231.59L128.85 231.488L129.998 231.362C131.5 231.192 132.937 231.011 135.682 230.656L138.068 230.35C145.669 229.391 149.625 229.065 154.207 229.161L154.827 229.176L156.579 229.235L157.051 229.245C158.268 229.261 159.185 229.197 160.019 229.01L160.097 228.991L160.083 228.001C160.031 223.187 160.189 218.321 160.566 211.563L160.887 206.13L161.191 201.071C161.426 197.046 161.546 194.569 161.643 191.654C162.147 176.601 161.075 165.007 157.583 154.434C155.996 149.627 154.187 146.384 151.474 144.197C149.126 142.302 146.463 141.328 141.48 140.181L140.753 140.015C134.898 138.694 131.062 138.161 127.078 138.319ZM166.097 230.538L166.089 231.012L166.675 231.037C166.463 230.882 166.27 230.716 166.097 230.538ZM161.505 229.424L161.517 230.037L161.013 230.192C159.846 230.553 158.671 230.667 157.025 230.645L156.406 230.631L154.993 230.582L154.787 230.575C152.425 230.508 150.273 230.549 147.743 230.729C152.764 230.669 157.784 230.722 162.801 230.887C162.286 230.508 161.839 230.006 161.505 229.424ZM224.929 127.174L224.338 127.619C222.771 128.798 221.512 130.386 220.713 132.178L220.653 132.314L220.679 132.32C222.744 132.753 223.948 132.781 225.089 132.31L225.196 132.265C226.687 131.607 227.404 129.563 226.479 128.621C226.038 128.171 225.581 127.74 225.102 127.322L224.929 127.174ZM36.2841 132.01L35.57 132.257C35.2709 132.357 34.999 132.442 34.7486 132.509C35.9068 132.484 37.0199 132.207 38.0298 131.663C37.6254 131.619 37.1067 131.733 36.2841 132.01ZM155.873 16.0428L155.891 16.0824C158.734 22.7367 158.41 30.6975 154.924 37.0558C151.564 43.1847 146.397 47.3056 136.779 52.7075L135.092 53.6459C127.929 57.609 121.469 60.9637 109.836 66.8227L98.0285 72.7591C85.8337 78.9105 79.2746 82.3486 71.5624 86.6839C59.753 93.3223 49.7034 99.7768 40.6075 106.735L39.9541 107.238C34.3692 111.558 30.8046 114.96 28.0223 118.993C26.1363 121.727 25.241 124.149 25.5441 126.43C25.6111 126.934 25.7683 127.443 26.0021 127.923L26.0933 128.101L26.1182 128.147L26.1361 128.169C26.7778 128.931 27.5111 129.624 28.3028 130.218L28.542 130.393L28.5822 130.421L28.6604 130.452C29.0684 130.602 29.481 130.673 29.8892 130.661L29.9136 130.659L29.9041 130.554C29.7019 127.936 32.0901 125.676 35.6845 124.104L35.8566 124.029C68.0348 110.294 99.7177 102.48 130.477 101.489C164.572 100.39 197.435 107.938 224.524 123.864C225.351 124.35 226.056 124.804 226.654 125.256L227.056 125.574C228.175 126.497 228.86 127.437 229.233 128.641C229.616 129.877 229.307 131.275 228.584 132.305L228.539 132.367C229.966 132.16 231.381 131.647 232.711 130.861L232.92 130.735L233.028 130.667L233.199 130.549C233.947 130.021 234.658 129.439 235.32 128.816L235.6 128.546L235.767 128.379L235.836 128.305C236.817 127.224 237.617 126 238.184 124.704C240.198 120.101 239.903 114.388 237.665 108.894L237.503 108.502C235.782 104.406 233.536 101.083 228.744 94.9416C215.65 78.1596 201.818 61.353 187.175 44.3904L185.755 42.7484C179.593 35.6315 175.712 31.4244 171.36 27.3736L171.152 27.1808C166.144 22.5402 161.228 18.8953 156.082 16.1533L155.873 16.0428ZM34.6498 127.067L34.5298 127.128C33.5991 127.596 33.0722 128.001 32.6713 128.574C32.0755 129.425 32.1707 130.663 32.85 131.083C33.3558 131.396 33.8977 131.345 35.1893 130.908L35.5257 130.791C36.2458 130.538 36.819 130.365 37.3128 130.287L37.3593 130.279L37.0837 129.922C36.7563 129.503 36.4196 129.091 36.0739 128.687L35.7251 128.286L34.6498 127.067ZM64.0974 35.0138L63.9303 35.0487L63.949 35.2344C64.0892 36.6605 63.2035 37.8454 61.6687 38.9089L61.5316 39.0025C59.2898 40.5084 56.7943 41.6346 54.1819 42.3194C52.0525 42.8775 50.37 42.9016 48.935 42.1234C48.7799 42.0393 48.4218 42.171 47.971 42.5454C46.9379 43.4033 46.0318 44.4142 45.2906 45.5339L45.1377 45.7699L50.4489 45.7373C52.2354 45.718 53.234 45.6743 54.373 45.5526L54.5002 45.5388C60.7054 44.8513 66.6017 41.6494 70.5572 36.8193L70.7235 36.611C71.0836 36.146 71.2518 35.8221 71.2909 35.4943C71.3308 35.1588 71.1332 34.8289 70.9458 34.8022C68.6738 34.4785 66.3474 34.5578 64.0974 35.0138ZM63.1323 35.2935C57.4015 35.7865 52.0641 38.6838 49.7034 41.6316C49.7034 41.843 49.891 41.9753 50.2212 42.0357C50.9905 41.0914 52.0641 40.154 53.3566 39.3009C53.8019 40.621 56.5734 40.0632 58.5008 39.5709C61.0802 38.1668 63.1323 36.4373 63.1323 35.2935ZM153.047 14.0025L153.098 14.0478C153.245 14.1799 153.388 14.3162 153.527 14.4565L153.335 14.1033L153.098 14.0201L153.047 14.0025Z" fill="#00160A"/>
<path d="M150.597 129.411C161.778 135.345 167.664 145.544 166.375 146.133C165.085 146.722 154.598 128.317 128.665 130.467C95.2184 131.626 91.0813 154.748 89.739 154.293C88.3967 153.837 93.6021 139.105 106.022 131.244C118.442 123.383 139.416 123.476 150.597 129.411Z" fill="#E7EAEE"/>
<path d="M143.693 177.436C143.59 177.084 143.43 176.751 143.218 176.451C142.902 176.055 142.562 175.68 142.199 175.328C141.735 174.848 139.925 173.325 139.831 172.924C139.799 172.857 139.747 172.8 139.682 172.763C139.586 172.688 139.479 172.625 139.38 172.553C139.138 172.378 138.903 172.193 138.655 172.029C138.563 171.968 138.415 171.985 138.337 171.916C138.024 171.637 137.744 171.32 137.421 171.054C137.032 170.734 136.601 170.465 136.209 170.149C135.848 169.89 135.437 169.709 135.001 169.619C134.452 169.454 133.866 169.453 133.317 169.618C132.813 169.775 132.505 170.121 132.188 170.47C131.886 170.802 131.748 171.25 131.809 171.693C131.764 171.689 131.72 171.682 131.676 171.673C130.98 171.474 130.385 171.726 129.844 172.122C129.496 172.374 129.212 172.705 129.016 173.088C128.831 173.42 128.735 173.795 128.739 174.175C128.732 174.317 128.717 174.459 128.695 174.6C128.662 174.986 128.631 175.371 128.602 175.757C128.586 175.966 128.634 176.201 128.554 176.378C128.378 176.734 128.315 177.134 128.37 177.526C128.402 177.729 128.422 177.934 128.629 177.982C128.581 178.065 128.544 178.154 128.518 178.247C128.492 178.432 128.489 178.621 128.477 178.808C128.439 179.39 128.392 179.971 128.367 180.553C128.354 180.851 128.393 181.15 128.386 181.448C128.338 182.169 128.472 182.89 128.776 183.546C128.972 183.97 129.257 184.346 129.612 184.649C129.944 184.913 130.289 185.162 130.724 185.226C130.97 185.262 131.219 185.277 131.467 185.299C131.653 185.316 132.03 185.339 132.169 185.355C132.354 185.305 132.577 185.321 132.755 185.28C132.817 185.265 132.879 185.251 132.942 185.236C133.32 185.094 133.754 184.892 134.012 184.772C134.578 184.503 135.077 184.11 135.47 183.622C135.744 183.322 135.93 182.954 136.009 182.556C136.09 182.034 136.036 181.501 135.854 181.005C135.633 180.42 135.383 179.847 135.153 179.266C134.918 178.67 134.679 178.074 134.467 177.469C134.37 177.261 134.336 177.03 134.369 176.804C134.393 176.547 134.364 176.288 134.284 176.043C134.199 175.662 134.085 175.287 133.984 174.909L134.075 174.873C134.134 174.964 134.189 175.058 134.253 175.145C134.405 175.399 134.587 175.634 134.793 175.846C134.997 176.03 135.148 176.264 135.232 176.526C135.37 176.88 135.459 177.255 135.61 177.603C135.909 178.292 136.225 178.974 136.558 179.648C136.685 179.912 136.851 180.156 137.051 180.371C137.684 181.039 138.513 181.489 139.418 181.657C139.95 181.748 140.494 181.725 141.016 181.592C141.7 181.452 142.325 181.106 142.807 180.601C142.967 180.422 143.107 180.227 143.225 180.018C143.429 179.7 143.606 179.365 143.754 179.017C143.951 178.494 143.853 177.95 143.693 177.436ZM136.979 170.918C137.37 171.272 137.754 171.634 138.165 172.015C138 172.067 137.896 172.14 137.773 171.965C137.644 171.826 137.502 171.698 137.349 171.585C137.299 171.512 137.26 171.433 137.234 171.349C137.134 171.343 136.954 171.356 136.993 171.133C136.87 171.098 136.755 171.065 136.611 171.024C136.745 170.838 136.863 170.813 136.979 170.918ZM136.765 170.766L136.386 170.888L136.471 170.607L136.218 170.686C136.118 170.6 136.034 170.504 136.128 170.355C136.325 170.482 136.522 170.609 136.765 170.766ZM135.676 170.108L136.124 170.353C135.904 170.442 135.76 170.344 135.646 170.171L135.676 170.108ZM132.465 172.617L132.664 172.886L132.589 172.947L132.398 172.665L132.465 172.617ZM129.044 176.055C129.104 175.358 129.144 174.657 129.24 173.964C129.272 173.643 129.382 173.335 129.561 173.065C129.876 172.649 130.23 172.251 130.814 172.154C131.152 172.067 131.508 172.091 131.831 172.222C131.889 172.243 131.938 172.282 131.973 172.332C132.205 172.795 132.511 173.218 132.879 173.582C133.163 173.898 133.36 174.282 133.452 174.696C133.525 174.976 133.562 175.265 133.611 175.551C133.619 175.62 133.623 175.69 133.623 175.759C132.842 175.546 132.073 175.619 131.319 175.714C130.567 175.81 129.829 176.023 129.066 176.188C129.052 176.145 129.044 176.101 129.044 176.055ZM132.703 173.03L132.778 172.999L132.97 173.166C132.894 173.188 132.816 173.229 132.799 173.211C132.758 173.156 132.726 173.095 132.703 173.03ZM133.017 173.328C133.058 173.33 133.119 173.316 133.138 173.337C133.198 173.409 133.308 173.486 133.117 173.623L133.017 173.328ZM128.619 177.078C128.63 176.847 128.668 176.659 128.958 176.58C129.254 176.499 129.515 176.3 129.809 176.207C130.176 176.089 130.552 176.003 130.934 175.95C131.399 175.878 131.868 175.843 132.338 175.845C132.79 175.864 133.24 175.918 133.685 176.004C133.938 176.083 134.128 176.295 134.178 176.556C133.818 176.665 133.004 176.678 132.951 176.686C132.472 176.761 131.992 176.823 131.514 176.899C131.291 176.935 131.072 176.999 130.85 177.04C130.777 177.053 130.188 177.183 130.005 177.23C129.559 177.346 129.106 177.44 128.62 177.551C128.619 177.4 128.611 177.239 128.619 177.078ZM129.592 184.359L129.049 183.639L129.085 183.605C129.129 183.655 129.175 183.703 129.219 183.753C129.334 183.883 129.454 184.009 129.562 184.145C129.597 184.205 129.623 184.27 129.641 184.337L129.592 184.359ZM130.259 184.776L130.219 184.809L129.935 184.618L130.201 184.523L130.259 184.776ZM130.679 184.969C130.536 184.984 130.433 184.929 130.418 184.788C130.414 184.748 130.51 184.69 130.569 184.657C130.613 184.683 130.647 184.721 130.666 184.768C130.679 184.834 130.683 184.902 130.679 184.969ZM131.454 185.068L131.399 185.113C131.294 185.022 131.189 184.931 131.077 184.834L130.984 185.069L130.799 184.803L130.852 184.717C131.045 184.75 131.239 184.782 131.453 184.818L131.454 185.068ZM131.899 185.099C131.67 185.131 131.666 185.127 131.617 184.825C131.662 184.819 131.708 184.812 131.753 184.807C131.799 184.802 131.845 184.799 131.893 184.795L131.899 185.099ZM132.332 185.097C132.106 185.15 132.066 185.106 132.06 184.815C132.131 184.814 132.201 184.813 132.267 184.813L132.332 185.097ZM133.093 184.901C133.093 184.929 133.043 184.983 133.028 184.979C132.989 184.965 132.954 184.94 132.93 184.906C132.892 184.844 132.845 184.789 132.79 184.743C132.743 184.889 132.852 185.1 132.621 185.099C132.547 185.099 132.475 184.921 132.38 184.797L133.071 184.589C133.08 184.696 133.094 184.798 133.093 184.901L133.093 184.901ZM133.516 184.828L133.296 184.891L133.221 184.561C133.304 184.52 133.375 184.484 133.457 184.443L133.516 184.828ZM133.681 184.696L133.623 184.375L133.869 184.248C133.942 184.619 133.931 184.645 133.681 184.696ZM134.486 184.256L134.338 184.007L134.265 184.022C134.262 184.09 134.268 184.158 134.286 184.224C134.326 184.32 134.348 184.392 134.223 184.429C134.109 184.463 134.059 184.404 134.038 184.302C134.026 184.242 134.011 184.183 133.999 184.128C134.176 183.998 134.344 183.875 134.519 183.747L134.729 184.096C134.656 184.144 134.57 184.2 134.486 184.256L134.486 184.256ZM135.45 180.61C135.54 180.816 135.615 181.029 135.675 181.245C135.691 181.302 135.709 181.358 135.729 181.414C135.866 181.789 135.887 182.198 135.788 182.586C135.786 182.596 135.767 182.602 135.756 182.609C135.756 182.86 135.646 183.098 135.454 183.258L135.172 183.113L135.12 183.168L135.367 183.419C135.309 183.484 135.232 183.571 135.155 183.658L134.97 183.426C134.83 183.57 134.874 183.654 135.107 183.732L134.82 183.994L134.66 183.628C134.902 183.258 135.12 182.873 135.313 182.475C135.346 182.287 135.388 182.102 135.441 181.919C135.453 181.876 135.52 181.842 135.569 181.818C135.616 181.801 135.665 181.789 135.715 181.782L135.72 181.723L135.499 181.655L135.45 180.61ZM135.266 180.91C135.36 181.403 135.312 181.912 135.129 182.379C134.936 183.046 134.489 183.61 133.884 183.95C133.546 184.15 133.194 184.323 132.83 184.469C132.547 184.569 132.246 184.613 131.946 184.599C131.446 184.588 130.95 184.517 130.467 184.388C130.098 184.274 129.409 183.608 129.375 183.556C129.266 183.394 129.159 183.231 129.067 183.06C128.845 182.683 128.699 182.268 128.634 181.836C128.592 181.443 128.577 181.047 128.589 180.652C128.6 180.225 128.653 179.799 128.689 179.373C128.723 178.97 128.754 178.567 128.801 178.166C128.821 178.089 128.874 178.025 128.946 177.991C129.147 177.91 129.353 177.842 129.562 177.788C129.713 177.748 129.874 177.75 130.025 177.711C130.659 177.546 131.284 177.332 131.927 177.215C132.471 177.115 133.038 177.148 133.588 177.074C133.999 177.018 134.141 177.207 134.231 177.557C134.331 177.944 134.476 178.32 134.598 178.701C134.613 178.747 134.783 179.163 134.834 179.375C134.958 179.892 135.143 180.393 135.266 180.91L135.266 180.91ZM133.763 174.126C133.712 174.129 133.62 174.145 133.616 174.134C133.598 174.06 133.587 173.984 133.582 173.908L133.709 173.89L133.763 174.126ZM133.373 173.905L133.304 173.604L133.374 173.579L133.592 173.808L133.373 173.905ZM133.385 173.352C133.032 172.984 132.657 172.637 132.44 172.157C132.111 171.536 132.326 170.766 132.929 170.404C133.327 170.135 133.799 169.998 134.279 170.013C134.828 170.015 135.357 170.213 135.772 170.572C136.225 170.953 136.68 171.331 137.127 171.719C137.289 171.861 137.43 172.026 137.601 172.201C137.36 172.316 137.128 172.42 136.902 172.535C136.246 172.863 135.632 173.268 135.073 173.743C134.902 173.899 134.748 174.074 134.615 174.263C134.515 174.394 134.445 174.433 134.315 174.296C134.011 173.976 133.69 173.67 133.385 173.352ZM133.902 174.414C133.871 174.35 133.853 174.281 133.847 174.21L133.902 174.187L134.074 174.33L134.073 174.401C134.014 174.407 133.92 174.439 133.902 174.414L133.902 174.414ZM134.221 174.843L134.107 174.548C134.157 174.545 134.215 174.524 134.254 174.542C134.388 174.607 134.349 174.694 134.221 174.843ZM134.891 175.546C134.736 175.431 134.6 175.292 134.489 175.133C134.444 175.065 134.474 174.92 134.512 174.827C134.73 174.347 135.077 173.935 135.514 173.64C136.148 173.157 136.845 172.763 137.585 172.469C137.704 172.424 137.824 172.377 137.94 172.323C138.445 172.086 138.975 172.359 139.261 172.849C139.094 172.887 138.935 172.918 138.779 172.96C137.314 173.285 136.02 174.136 135.14 175.352C135.08 175.438 134.913 175.563 134.891 175.546ZM135.735 177.147C135.603 176.79 135.451 176.441 135.279 176.101C135.209 176.006 135.223 175.873 135.311 175.795C135.416 175.687 135.513 175.572 135.622 175.469C136.309 174.815 137.022 174.193 137.871 173.752C138.129 173.615 138.395 173.494 138.668 173.388C138.924 173.284 139.192 173.211 139.466 173.168C139.575 173.155 139.719 173.277 139.822 173.366C140.067 173.58 140.3 173.808 140.532 174.037C140.968 174.468 141.408 174.894 141.829 175.337C142.302 175.835 142.605 176.435 142.845 177.232C142.882 177.635 142.893 178.04 142.878 178.444C142.821 178.911 142.576 179.333 142.2 179.614C141.832 179.926 141.437 180.206 141.021 180.451C140.293 180.867 139.417 180.932 138.636 180.628C138.176 180.449 137.752 180.19 137.383 179.862C137.087 179.579 136.825 179.264 136.602 178.921C136.225 178.377 135.933 177.779 135.735 177.147L135.735 177.147ZM137.564 180.628C137.484 180.468 137.425 180.351 137.36 180.221C137.237 180.299 137.155 180.201 137.078 180.082C136.938 179.868 136.794 179.657 136.651 179.444L136.698 179.408C137.023 179.74 137.259 180.17 137.745 180.318C137.681 180.427 137.641 180.497 137.564 180.628L137.564 180.628ZM138.156 180.885C137.903 180.88 137.798 180.745 137.842 180.459C138.17 180.625 138.17 180.625 138.156 180.885L138.156 180.885ZM143.612 178.03C143.579 178.138 143.742 178.349 143.438 178.317C143.402 178.327 143.374 178.354 143.364 178.39C143.373 178.427 143.4 178.456 143.435 178.469C143.511 178.478 143.588 178.481 143.665 178.477C143.641 178.624 143.608 178.77 143.567 178.913C143.559 178.934 143.43 178.925 143.362 178.91C143.276 178.886 143.191 178.857 143.109 178.822L143.067 178.917C143.202 178.987 143.337 179.057 143.494 179.139C143.442 179.269 143.38 179.395 143.308 179.515C143.175 179.703 143.086 179.406 142.912 179.493L143.147 179.78L142.935 180.037C142.715 180.486 142.341 180.843 141.881 181.042C141.764 181.097 141.715 181.088 141.656 180.98C141.606 180.902 141.55 180.828 141.488 180.759L141.411 180.808L141.594 181.19C141.469 181.277 141.349 181.392 141.213 181.249C141.131 181.145 141.059 181.035 140.998 180.918L140.934 180.941L141.075 181.404C140.962 181.4 140.809 181.437 140.715 181.38C140.622 181.323 140.587 181.169 140.513 181.033C140.377 181.191 140.505 181.308 140.538 181.436C140.275 181.666 140.252 181.345 140.117 181.213C140.097 181.307 140.102 181.38 140.068 181.415C140.017 181.468 139.95 181.503 139.877 181.515C139.848 181.519 139.794 181.437 139.775 181.386C139.748 181.297 139.726 181.207 139.71 181.115L139.634 181.124L139.596 181.506C139.484 181.461 139.35 181.447 139.301 181.375C139.246 181.295 139.267 181.162 139.255 181.052L139.168 181.044L139.105 181.356C138.787 181.384 138.886 181.075 138.749 180.89C138.711 181.014 138.683 181.107 138.654 181.2C138.356 181.097 138.282 180.982 138.374 180.747C138.847 180.942 139.357 181.031 139.868 181.007C140.34 180.984 140.798 180.838 141.195 180.583C141.564 180.352 141.921 180.103 142.265 179.836C142.577 179.582 142.822 179.255 142.976 178.883C143.15 178.434 143.176 177.94 143.049 177.475C142.964 177.125 142.888 176.774 142.803 176.4C143.015 176.536 143.179 176.735 143.273 176.969C143.363 177.165 143.441 177.367 143.507 177.572C143.563 177.673 143.546 177.798 143.466 177.881C143.329 178.04 143.533 177.987 143.612 178.03Z" fill="#FFB61D"/>
<path d="M142.561 179.727C142.616 179.996 142.71 180.069 142.934 180.049C142.943 180.03 142.958 180.002 142.954 180C142.831 179.912 142.706 179.827 142.561 179.727Z" fill="#F93059"/>
<path d="M142.937 180.049L142.935 180.049L142.933 180.055L142.937 180.049Z" fill="#F93059"/>
<path d="M141.729 180.573C141.822 180.687 141.916 180.8 142.009 180.913L142.091 180.833L141.804 180.508L141.729 180.573Z" fill="#F93059"/>
<path d="M142.122 180.248L142.422 180.518L142.49 180.436L142.185 180.173L142.122 180.248Z" fill="#F93059"/>
</svg>
