<svg width="23" height="24" viewBox="0 0 23 24" fill="none" xmlns="http://www.w3.org/2000/svg">
<path d="M16.9162 7.16C16.8598 7.15 16.794 7.15 16.7377 7.16C15.4408 7.11 14.407 5.98 14.407 4.58C14.407 3.15 15.4877 2 16.8316 2C18.1755 2 19.2563 3.16 19.2563 4.58C19.2469 5.98 18.2131 7.11 16.9162 7.16Z" stroke="#808080" stroke-width="1.5" stroke-linecap="round" stroke-linejoin="round"/>
<path d="M15.9481 14.4399C17.2356 14.6699 18.6547 14.4299 19.6509 13.7199C20.976 12.7799 20.976 11.2399 19.6509 10.2999C18.6453 9.58992 17.2074 9.34991 15.9199 9.58991" stroke="#808080" stroke-width="1.5" stroke-linecap="round" stroke-linejoin="round"/>
<path d="M5.61034 7.16C5.66673 7.15 5.73252 7.15 5.7889 7.16C7.08581 7.11 8.11958 5.98 8.11958 4.58C8.11958 3.15 7.03883 2 5.69493 2C4.35102 2 3.27026 3.16 3.27026 4.58C3.27966 5.98 4.31343 7.11 5.61034 7.16Z" stroke="#808080" stroke-width="1.5" stroke-linecap="round" stroke-linejoin="round"/>
<path d="M6.57844 14.4399C5.29092 14.6699 3.87184 14.4299 2.87566 13.7199C1.55056 12.7799 1.55056 11.2399 2.87566 10.2999C3.88124 9.58992 5.31912 9.34991 6.60663 9.58991" stroke="#808080" stroke-width="1.5" stroke-linecap="round" stroke-linejoin="round"/>
<path d="M11.2775 14.63C11.2212 14.62 11.1554 14.62 11.099 14.63C9.80208 14.58 8.76831 13.45 8.76831 12.05C8.76831 10.62 9.84907 9.46997 11.193 9.46997C12.5369 9.46997 13.6176 10.63 13.6176 12.05C13.6082 13.45 12.5745 14.59 11.2775 14.63Z" stroke="#808080" stroke-width="1.5" stroke-linecap="round" stroke-linejoin="round"/>
<path d="M8.54266 17.7799C7.21755 18.7199 7.21755 20.2599 8.54266 21.1999C10.0463 22.2699 12.5086 22.2699 14.0122 21.1999C15.3373 20.2599 15.3373 18.7199 14.0122 17.7799C12.518 16.7199 10.0463 16.7199 8.54266 17.7799Z" stroke="#808080" stroke-width="1.5" stroke-linecap="round" stroke-linejoin="round"/>
</svg>
