<svg width="24" height="24" viewBox="0 0 24 24" fill="none" xmlns="http://www.w3.org/2000/svg">
<g id="vuesax/linear/people">
<g id="people">
<g id="Group">
<path id="Vector" d="M17.6518 7.16C17.5954 7.15 17.5296 7.15 17.4733 7.16C16.1763 7.11 15.1426 5.98 15.1426 4.58C15.1426 3.15 16.2233 2 17.5672 2C18.9111 2 19.9919 3.16 19.9919 4.58C19.9825 5.98 18.9487 7.11 17.6518 7.16Z" stroke="#808080" stroke-width="1.5" stroke-linecap="round" stroke-linejoin="round"/>
<path id="Vector_2" d="M16.6837 14.44C17.9712 14.67 19.3903 14.43 20.3865 13.72C21.7116 12.78 21.7116 11.24 20.3865 10.3C19.3809 9.59004 17.943 9.35003 16.6555 9.59003" stroke="#808080" stroke-width="1.5" stroke-linecap="round" stroke-linejoin="round"/>
</g>
<g id="Group_2">
<path id="Vector_3" d="M6.34594 7.16C6.40233 7.15 6.46811 7.15 6.5245 7.16C7.82141 7.11 8.85518 5.98 8.85518 4.58C8.85518 3.15 7.77442 2 6.43052 2C5.08662 2 4.00586 3.16 4.00586 4.58C4.01526 5.98 5.04903 7.11 6.34594 7.16Z" stroke="#808080" stroke-width="1.5" stroke-linecap="round" stroke-linejoin="round"/>
<path id="Vector_4" d="M7.31403 14.44C6.02652 14.67 4.60744 14.43 3.61126 13.72C2.28616 12.78 2.28616 11.24 3.61126 10.3C4.61684 9.59004 6.05471 9.35003 7.34223 9.59003" stroke="#808080" stroke-width="1.5" stroke-linecap="round" stroke-linejoin="round"/>
</g>
<g id="Group_3">
<path id="Vector_5" d="M12.0131 14.63C11.9568 14.62 11.891 14.62 11.8346 14.63C10.5377 14.58 9.50391 13.45 9.50391 12.05C9.50391 10.62 10.5847 9.46997 11.9286 9.46997C13.2725 9.46997 14.3532 10.63 14.3532 12.05C14.3438 13.45 13.3101 14.59 12.0131 14.63Z" stroke="#808080" stroke-width="1.5" stroke-linecap="round" stroke-linejoin="round"/>
<path id="Vector_6" d="M9.27825 17.78C7.95315 18.72 7.95315 20.26 9.27825 21.2C10.7819 22.27 13.2442 22.27 14.7478 21.2C16.0729 20.26 16.0729 18.72 14.7478 17.78C13.2536 16.72 10.7819 16.72 9.27825 17.78Z" stroke="#808080" stroke-width="1.5" stroke-linecap="round" stroke-linejoin="round"/>
</g>
</g>
</g>
</svg>
